<svg width="26" height="24" viewBox="0 0 26 24" fill="none" xmlns="http://www.w3.org/2000/svg">
<g clip-path="url(#clip0_354_867)">
<path fill-rule="evenodd" clip-rule="evenodd" d="M17.0247 3.73268C13.5971 2.06382 9.34715 2.65292 6.50005 5.49996C2.91025 9.08979 2.91025 14.9101 6.50005 18.4999C6.73905 18.7388 6.98785 18.9618 7.24525 19.169L8.67015 17.744C8.40695 17.5451 8.15425 17.3256 7.91435 17.0857C5.10555 14.2769 5.10555 9.72295 7.91435 6.91417C9.96595 4.86253 12.9488 4.30949 15.5024 5.25505L17.0247 3.73268ZM17.3299 6.25583C17.5932 6.45478 17.8459 6.67423 18.0858 6.91417C20.8946 9.72295 20.8946 14.2769 18.0858 17.0857C16.0342 19.1373 13.0514 19.6903 10.4978 18.7448L8.97545 20.2672C12.4031 21.936 16.653 21.3469 19.5 18.4999C23.0898 14.9101 23.0898 9.08979 19.5 5.49996C19.2611 5.26103 19.0123 5.038 18.7549 4.83087L17.3299 6.25583Z" fill="white"/>
<path fill-rule="evenodd" clip-rule="evenodd" d="M25.0208 1.39346L22.1923 1.39346L18.2115 5.37428L19.6257 6.78849L25.0208 1.39346ZM7.78834 18.6259L6.37414 17.2117L0.97914 22.6067L3.80754 22.6067L7.78834 18.6259Z" fill="white"/>
</g>
<defs>
<clipPath id="clip0_354_867">
<rect width="24" height="26" fill="white" transform="translate(26) rotate(90)"/>
</clipPath>
</defs>
</svg>
