<svg width="12" height="14" viewBox="0 0 12 14" fill="none" xmlns="http://www.w3.org/2000/svg">
<g id="fetch-dark">
<path id="icon/av/loop_24px" fill-rule="evenodd" clip-rule="evenodd" d="M5.99992 0.583336V2.33334C8.57825 2.33334 10.6666 4.42167 10.6666 7C10.6666 7.91584 10.3983 8.7675 9.94325 9.485L9.09158 8.63334C9.35409 8.14917 9.49992 7.58917 9.49992 7C9.49992 5.06917 7.93075 3.5 5.99992 3.5V5.25L3.66659 2.91667L5.99992 0.583336ZM2.49992 7C2.49992 8.93084 4.06909 10.5 5.99992 10.5V8.75L8.33325 11.0833L5.99992 13.4167V11.6667C3.42159 11.6667 1.33325 9.57834 1.33325 7C1.33325 6.08417 1.60159 5.2325 2.05659 4.515L2.90825 5.36667C2.64575 5.85084 2.49992 6.41084 2.49992 7Z" fill="#CCCCCC"/>
</g>
</svg>
