<svg width="13" height="12" viewBox="0 0 13 12" fill="none" xmlns="http://www.w3.org/2000/svg">
<path d="M2 6C2 6.28444 1.89333 6.53333 1.68 6.74667C1.50222 6.92444 1.27111 7.01333 0.986667 7.01333C0.702222 7.01333 0.471111 6.92444 0.293333 6.74667C0.115556 6.53333 0.0266666 6.28444 0.0266666 6C0.0266666 5.71556 0.115556 5.48444 0.293333 5.30667C0.471111 5.09333 0.702222 4.98667 0.986667 4.98667C1.27111 4.98667 1.50222 5.09333 1.68 5.30667C1.89333 5.48444 2 5.71556 2 6ZM7.01333 6C7.01333 6.28444 6.90667 6.53333 6.69333 6.74667C6.51556 6.92444 6.28444 7.01333 6 7.01333C5.71556 7.01333 5.46667 6.92444 5.25333 6.74667C5.07556 6.53333 4.98667 6.28444 4.98667 6C4.98667 5.71556 5.07556 5.48444 5.25333 5.30667C5.46667 5.09333 5.71556 4.98667 6 4.98667C6.28444 4.98667 6.51556 5.09333 6.69333 5.30667C6.90667 5.48444 7.01333 5.71556 7.01333 6ZM12.0267 6C12.0267 6.28444 11.92 6.53333 11.7067 6.74667C11.5289 6.92444 11.2978 7.01333 11.0133 7.01333C10.7289 7.01333 10.48 6.92444 10.2667 6.74667C10.0889 6.53333 10 6.28444 10 6C10 5.71556 10.0889 5.48444 10.2667 5.30667C10.48 5.09333 10.7289 4.98667 11.0133 4.98667C11.2978 4.98667 11.5289 5.09333 11.7067 5.30667C11.92 5.48444 12.0267 5.71556 12.0267 6Z" fill="#CCCCCC"/>
</svg>
