<svg width="24" height="26" viewBox="0 0 24 26" fill="none"
	xmlns="http://www.w3.org/2000/svg">
	<path fill-rule="evenodd" clip-rule="evenodd" d="M3.73268 8.97536C2.06382 12.403 2.65292 16.6529 5.49996 19.5C9.08979 23.0898 14.9101 23.0898 18.4999 19.5C18.7388 19.261 18.9618 19.0122 19.169 18.7548L17.744 17.3299C17.5451 17.5931 17.3256 17.8458 17.0857 18.0857C14.2769 20.8945 9.72295 20.8945 6.91417 18.0857C4.86253 16.0341 4.30949 13.0513 5.25505 10.4977L3.73268 8.97536ZM6.25583 8.67012C6.45478 8.40688 6.67423 8.1542 6.91417 7.91425C9.72295 5.10547 14.2769 5.10547 17.0857 7.91425C19.1373 9.96589 19.6903 12.9486 18.7448 15.5022L20.2672 17.0246C21.936 13.597 21.3469 9.34707 18.4999 6.50004C14.9101 2.91021 9.08979 2.91021 5.49996 6.50004C5.26103 6.73897 5.038 6.98778 4.83087 7.24516L6.25583 8.67012Z" fill="white"/>
	<path fill-rule="evenodd" clip-rule="evenodd" d="M1.39346 0.979189V3.80762L5.37428 7.78843L6.78849 6.37422L1.39346 0.979189ZM18.6259 18.2116L17.2117 19.6258L22.6067 25.0208V22.1924L18.6259 18.2116Z" fill="white"/>
</svg>
